<?xml version="1.0" encoding="utf-8"?>
<!-- Generator: Adobe Illustrator 16.0.0, SVG Export Plug-In . SVG Version: 6.00 Build 0)  -->
<!DOCTYPE svg PUBLIC "-//W3C//DTD SVG 1.1//EN" "http://www.w3.org/Graphics/SVG/1.1/DTD/svg11.dtd">
<svg version="1.1" id="Layer_1" xmlns="http://www.w3.org/2000/svg" xmlns:xlink="http://www.w3.org/1999/xlink" x="0px" y="0px"
	 width="120.076px" height="178.316px" viewBox="0 0 120.076 178.316" enable-background="new 0 0 120.076 178.316"
	 xml:space="preserve">
<g>
	<polygon fill="#006944" points="78.105,48.04 59.988,26.297 41.871,48.04 23.75,26.296 12.096,40.28 1.522,26.672 23.75,0.002 
		41.871,21.743 59.99,0 78.105,21.743 96.223,0 118.745,27.026 107.875,40.28 96.223,26.297 	"/>
</g>
<g>
	<polygon fill="#00A767" points="18.424,32.686 11.578,14.605 1.522,26.672 25.367,51.371 	"/>
	<polygon fill="#00A767" points="101.547,32.686 108.393,14.605 118.745,27.026 94.604,51.371 	"/>
	<polygon fill="#00A767" points="59.99,0 41.871,21.743 41.871,48.04 59.988,26.297 78.105,48.04 78.105,21.743 	"/>
	<path fill="#00A767" d="M102.756,29.568l-42.75,114.326L17.258,29.568l-16.742,3.42l54.312,141.921h0.025
		c0.854,2.003,2.839,3.407,5.153,3.407c2.315,0,4.301-1.404,5.154-3.407h0.025l54.279-141.724L102.756,29.568z"/>
	<circle fill="#00A767" cx="59.986" cy="172.569" r="5.748"/>
	<circle fill="#00A767" cx="5.748" cy="30.616" r="5.748"/>
	<circle fill="#00A767" cx="114.329" cy="30.616" r="5.748"/>
</g>
</svg>
